<svg xmlns="http://www.w3.org/2000/svg" width="15" height="15" fill="none" viewBox="0 0 15 15">
    <path fill="#7A7B7D" d="M7.673.373c-3.882 0-7.03 3.148-7.03 7.03 0 3.881 3.148 7.03 7.03 7.03s7.03-3.149 7.03-7.03c0-3.882-3.148-7.03-7.03-7.03zm1.464 10.895c-.362.143-.65.251-.866.326-.216.075-.466.113-.751.113-.438 0-.78-.108-1.022-.321-.243-.214-.364-.485-.364-.814 0-.128.01-.259.027-.392.019-.133.048-.283.088-.452l.452-1.6c.04-.153.075-.299.102-.434.028-.137.04-.263.04-.377 0-.204-.042-.346-.125-.427-.086-.08-.246-.12-.484-.12-.117 0-.237.018-.36.054-.122.038-.228.072-.315.105l.12-.493c.296-.12.58-.224.85-.31.271-.087.527-.13.768-.13.435 0 .77.106 1.007.316.235.21.354.483.354.819 0 .07-.009.192-.025.367s-.046.335-.09.482l-.45 1.595c-.038.128-.07.275-.1.438-.03.164-.044.289-.044.373 0 .212.047.356.143.433.094.077.259.116.492.116.11 0 .233-.02.372-.058.138-.038.238-.072.302-.101l-.121.492zm-.08-6.474c-.21.195-.463.293-.759.293-.295 0-.55-.098-.762-.293-.21-.195-.317-.432-.317-.71 0-.277.107-.515.317-.712.212-.197.467-.295.762-.295.296 0 .55.098.759.295.21.197.315.435.315.712 0 .278-.105.515-.315.71z"/>
</svg>
