<svg xmlns="http://www.w3.org/2000/svg" width="14" height="14" fill="none" viewBox="0 0 14 14">
    <path fill="#7A7B7D" d="M12.961.992C12.911.952 11.711 0 9.816 0 8.83 0 7.844.465 6.889.916c-.886.417-1.722.81-2.461.81-1.143 0-2.09-.423-2.498-.64V.005H.836V14H1.93V9.39c.597.26 1.477.537 2.498.537.985 0 1.974-.472 2.93-.928.884-.422 1.72-.821 2.458-.821 1.47 0 2.421.72 2.459.75l.89.734V1.156L12.96.992zm-.89 6.569c-.543-.242-1.313-.477-2.255-.477-.986 0-1.974.472-2.93.928-.885.423-1.72.822-2.458.822-1.12 0-2.051-.42-2.471-.645V2.307c.596.25 1.465.513 2.47.513.985 0 1.973-.465 2.928-.915.885-.418 1.72-.812 2.46-.812 1.092 0 1.898.398 2.256.614v5.854z"/>
</svg>
