<svg xmlns="http://www.w3.org/2000/svg" width="16" height="8" fill="none" viewBox="0 0 16 8">
    <path fill="#3F434A" d="M.292.356C.62.104 1.09.164 1.342.49l.003.004.02.024c.019.023.051.06.096.11.09.098.232.244.425.416.387.344.98.792 1.786 1.191C4.729 2.76 6.162 3.2 8 3.2c1.837 0 3.27-.441 4.328-.965.806-.399 1.398-.847 1.785-1.191.193-.172.335-.318.425-.416l.097-.11.02-.024.002-.003c.253-.326.722-.387 1.05-.135.328.252.39.723.137 1.051l-.001.002-.002.002-.004.005-.012.016-.04.048c-.033.04-.08.094-.14.16-.122.134-.3.315-.535.525-.352.312-.834.687-1.45 1.052l1.222 2.392c.188.37.042.82-.327 1.01-.369.188-.82.041-1.009-.328l-1.229-2.407c-.98.4-2.168.71-3.567.794V6.95c0 .414-.336.75-.75.75-.415 0-.75-.336-.75-.75V4.678c-1.4-.083-2.588-.394-3.568-.794L2.453 6.291c-.188.37-.64.516-1.009.327-.369-.188-.515-.64-.327-1.009L2.34 3.217c-.616-.365-1.098-.74-1.45-1.052-.235-.21-.412-.391-.534-.524C.294 1.574.247 1.52.214 1.48l-.04-.048-.012-.016-.004-.005-.002-.002c-.253-.33-.192-.8.136-1.053z"/>
</svg>
