<svg xmlns="http://www.w3.org/2000/svg" width="20" height="20" fill="none" viewBox="0 0 20 20">
    <path fill="#3F434A" fill-rule="evenodd" d="M2.75 12.515c-.414 0-.75.342-.75.763 0 .422.336.763.75.763h5.639c.414 0 .75-.341.75-.763 0-.421-.336-.763-.75-.763H2.75zm14.5 1.526h-4.89v1.696c0 .421-.335.763-.75.763-.413 0-.75-.342-.75-.763v-2.435-.024-2.458c0-.422.337-.764.75-.764.415 0 .75.342.75.764v1.695h4.89c.413 0 .75.342.75.763 0 .422-.337.763-.75.763zm-8-7.32c0-.42.336-.762.75-.762h7.25c.414 0 .75.341.75.763 0 .421-.336.763-.75.763H10c-.414 0-.75-.342-.75-.763zm-6.5-.762c-.414 0-.75.341-.75.763 0 .421.336.763.75.763h3.277V9.18c0 .422.336.763.75.763.415 0 .75-.341.75-.763V6.748v-.026V4.263c0-.421-.335-.763-.75-.763-.414 0-.75.342-.75.763v1.696H2.75z" clip-rule="evenodd"/>
</svg>
