<svg xmlns="http://www.w3.org/2000/svg" width="20" height="20" fill="none" viewBox="0 0 20 20">
    <path fill="#595F69" fill-rule="evenodd" d="M2.75 4.42c-.414 0-.75.336-.75.75s.336.75.75.75h14.5c.414 0 .75-.336.75-.75s-.336-.75-.75-.75H2.75zm0 3.222c-.414 0-.75.336-.75.75s.336.75.75.75h11.278c.414 0 .75-.336.75-.75s-.336-.75-.75-.75H2.75zM2 11.614c0-.414.336-.75.75-.75h14.5c.414 0 .75.336.75.75 0 .415-.336.75-.75.75H2.75c-.414 0-.75-.335-.75-.75zm.75 2.473c-.414 0-.75.335-.75.75 0 .414.336.75.75.75h11.278c.414 0 .75-.336.75-.75 0-.415-.336-.75-.75-.75H2.75z" clip-rule="evenodd"/>
</svg>
