<svg xmlns="http://www.w3.org/2000/svg" width="20" height="20" fill="none" viewBox="0 0 20 20">
    <path fill="#595F69" fill-rule="evenodd" d="M6.066 2.62c.387 0 .7.314.7.7v.472h2.43V3.32c0-.387.314-.7.701-.7.387 0 .7.313.7.7v.47h2.337v-.47c0-.387.313-.7.7-.7.387 0 .701.313.701.7v.47h.467c1.42 0 2.57 1.151 2.57 2.57v2.89c0 .387-.314.701-.701.701-.387 0-.701-.314-.701-.7V6.36c0-.645-.523-1.168-1.168-1.168h-.467v.465c0 .387-.314.7-.7.7-.388 0-.701-.313-.701-.7v-.465h-2.336v.465c0 .387-.314.7-.7.7-.388 0-.702-.313-.702-.7v-.465h-2.43v.465c0 .387-.313.7-.7.7-.387 0-.7-.313-.7-.7v-.465h-.374c-.645 0-1.168.523-1.168 1.168v8.642c0 .645.523 1.168 1.168 1.168H9.05c.387 0 .701.314.701.7 0 .388-.314.702-.7.702H4.991c-1.419 0-2.57-1.15-2.57-2.57V6.361c0-1.419 1.151-2.57 2.57-2.57h.373v-.47c0-.387.314-.7.7-.7zm.673 6.123c0 .362-.293.654-.654.654-.36 0-.654-.292-.654-.654 0-.36.293-.654.654-.654.361 0 .654.293.654.654zm1.869.654c.361 0 .654-.292.654-.654 0-.36-.293-.654-.654-.654-.361 0-.654.293-.654.654 0 .362.293.654.654.654zm-1.869 1.897c0 .361-.293.654-.654.654-.36 0-.654-.293-.654-.654 0-.361.293-.654.654-.654.361 0 .654.293.654.654zm1.869.654c.361 0 .654-.293.654-.654 0-.361-.293-.654-.654-.654-.361 0-.654.293-.654.654 0 .361.293.654.654.654zm-1.869 1.878c0 .361-.293.654-.654.654-.36 0-.654-.293-.654-.654 0-.361.293-.654.654-.654.361 0 .654.293.654.654zm1.869.654c.361 0 .654-.293.654-.654 0-.361-.293-.654-.654-.654-.361 0-.654.293-.654.654 0 .361.293.654.654.654zm3.204-5.737c0 .362-.292.654-.654.654-.36 0-.654-.292-.654-.654 0-.36.293-.654.654-.654.362 0 .654.293.654.654zm1.869.654c.361 0 .654-.292.654-.654 0-.36-.293-.654-.654-.654-.361 0-.654.293-.654.654 0 .362.293.654.654.654z" clip-rule="evenodd"/>
    <path fill="#595F69" fill-rule="evenodd" d="M15.97 13.835c0 1.29-1.045 2.336-2.335 2.336s-2.336-1.046-2.336-2.336c0-1.29 1.046-2.335 2.336-2.335 1.29 0 2.335 1.045 2.335 2.335zm1.402 0c0 2.064-1.673 3.737-3.737 3.737S9.897 15.9 9.897 13.835s1.674-3.737 3.738-3.737 3.737 1.673 3.737 3.737zm-3.55-.934c0-.258-.21-.467-.468-.467s-.467.209-.467.467v1.401c0 .258.21.468.467.468h1.122c.257 0 .467-.21.467-.468s-.21-.467-.467-.467h-.655v-.934z" clip-rule="evenodd"/>
</svg>
