<svg xmlns="http://www.w3.org/2000/svg" width="15" height="15" fill="none" viewBox="0 0 15 15">
    <path fill="#7A7B7D" d="M7.5 0C3.358 0 0 3.358 0 7.5 0 11.64 3.358 15 7.5 15c4.141 0 7.5-3.359 7.5-7.5C15 3.358 11.641 0 7.5 0zM9.06 11.623c-.386.153-.693.268-.924.348-.23.08-.497.12-.801.12-.467 0-.831-.114-1.09-.342-.26-.228-.388-.517-.388-.868 0-.136.01-.276.028-.418.02-.142.051-.302.094-.482l.483-1.707c.042-.164.08-.32.108-.464.03-.146.044-.28.044-.402 0-.217-.045-.37-.135-.455-.09-.086-.262-.128-.516-.128-.125 0-.253.019-.384.058-.13.04-.243.076-.336.111l.127-.525c.317-.13.62-.24.908-.331.29-.093.562-.139.82-.139.464 0 .822.113 1.074.337.25.224.377.515.377.874 0 .074-.01.205-.026.391-.017.188-.05.358-.097.515l-.48 1.702c-.04.136-.075.293-.106.467-.031.175-.047.308-.047.397 0 .227.05.38.152.463.1.082.276.123.525.123.118 0 .249-.021.398-.062.147-.04.254-.076.32-.108l-.128.525zm-.085-6.906c-.224.208-.494.312-.81.312-.315 0-.586-.104-.812-.312-.225-.208-.339-.462-.339-.758 0-.295.115-.549.339-.759.226-.21.497-.316.812-.316.316 0 .586.105.81.316.224.21.336.464.336.76s-.112.549-.336.757z"/>
</svg>
