<svg xmlns="http://www.w3.org/2000/svg" width="220" height="220" fill="none" viewBox="0 0 220 220">
    <circle cx="110" cy="110" r="110" fill="#F8F8F8"/>
    <path fill="#E8A30A" d="M144.712 153.022L97.86 126.094c-3.473-2.001-6.288-7.349-6.288-11.952V82.455c0-4.603 2.815-6.67 6.288-4.725l46.852 26.928c3.474 2.001 6.288 7.349 6.288 11.952v31.687c0 4.603-2.814 6.715-6.288 4.725z"/>
    <path fill="#E8A30A" d="M128.148 165.654l20.93-12.463-12.687-28.652-19.702 9.695 11.459 31.42zM73.557 89.46l20.65-12.263 5.171 38.18-25.821-25.916z"/>
    <path fill="#F9CB07" d="M124.185 165.253l-46.908-26.928c-3.474-1.99-6.277-7.338-6.277-11.941V94.675c0-4.603 2.803-6.67 6.277-4.725l46.908 26.939c3.462 1.99 6.276 7.338 6.276 11.941v31.687c0 4.603-2.814 6.726-6.276 4.736z"/>
    <path stroke="#CC8B09" stroke-miterlimit="10" stroke-width="10.46" d="M96.598 89.027v-24.07c0-9.774 6.891-13.732 15.39-8.895 8.499 4.88 15.39 16.766 15.39 26.528v24.07"/>
    <path fill="#CC8B09" d="M96.386 93.118c3.769 0 6.824-1.757 6.824-3.925 0-2.167-3.055-3.924-6.824-3.924-3.768 0-6.823 1.757-6.823 3.924 0 2.168 3.055 3.925 6.823 3.925zM127.379 109.507c3.768 0 6.824-1.757 6.824-3.925s-3.056-3.925-6.824-3.925c-3.769 0-6.824 1.757-6.824 3.925s3.055 3.925 6.824 3.925z"/>
</svg>
