<svg xmlns="http://www.w3.org/2000/svg" width="183" height="74" fill="none" viewBox="0 0 183 74">
    <g clip-path="url(#clip0)">
        <path fill="#2AAEBC" d="M103.2 8.7h-5.6v14.4H96V8.7h-5.6V7.3h12.8v1.4zM115 23.1h-1.5v-6.5c0-1.3-.2-2.3-.7-3-.5-.7-1.1-1-2-1-.4 0-.9.1-1.3.3-.4.2-.8.4-1.2.7-.4.3-.7.6-1 1-.3.4-.5.8-.6 1.3V23h-1.5V6.9h1.5v7.3c.5-.9 1.1-1.6 1.9-2.1.8-.5 1.7-.8 2.6-.8.7 0 1.2.1 1.7.4.5.3.8.6 1.1 1 .3.4.5 1 .6 1.6.1.6.2 1.3.2 2v6.8h.2zM123.2 23.4c-.8 0-1.6-.2-2.3-.5-.7-.3-1.3-.8-1.9-1.3-.5-.6-.9-1.2-1.2-1.9-.3-.7-.4-1.5-.4-2.3 0-.8.1-1.6.4-2.3.3-.7.7-1.4 1.2-1.9s1.1-1 1.8-1.3c.7-.3 1.5-.5 2.3-.5.8 0 1.6.2 2.3.5.7.3 1.3.8 1.8 1.3.5.6.9 1.2 1.2 1.9.3.7.4 1.5.4 2.3V18H119c0 .6.2 1.2.4 1.7s.6 1 .9 1.4c.4.4.8.7 1.3.9.5.2 1 .3 1.6.3.4 0 .8-.1 1.1-.2.4-.1.7-.2 1-.4.3-.2.6-.4.8-.7.2-.3.4-.5.6-.9l1.3.4c-.2.4-.4.8-.8 1.2-.3.3-.7.7-1.1.9-.4.3-.9.5-1.4.6-.4.1-.9.2-1.5.2zm4.3-6.7c0-.6-.2-1.2-.4-1.7s-.6-1-.9-1.3c-.4-.4-.8-.7-1.3-.9-.5-.2-1-.3-1.6-.3-.6 0-1.1.1-1.6.3-.5.2-.9.5-1.3.9s-.7.8-.9 1.3c-.2.5-.4 1.1-.4 1.7h8.4z"/>
        <path fill="#000" d="M104.301 40.7c0 .7-.1 1.3-.4 1.8-.3.5-.6.9-1.1 1.3-.5.3-1 .6-1.6.8-.6.2-1.3.3-2 .3h-7.6V29h8.5c.5 0 1 .1 1.5.4.4.2.8.5 1.1.9.3.4.6.8.7 1.3.2.5.3 1 .3 1.5 0 .8-.2 1.5-.6 2.2-.4.7-1 1.2-1.7 1.5.9.3 1.6.7 2.2 1.4.4.6.7 1.5.7 2.5zm-9.7-9.1v4h4.1c.5 0 1-.2 1.3-.5.4-.4.5-.8.5-1.5 0-.6-.2-1.1-.5-1.4-.3-.4-.7-.5-1.2-.5h-4.2v-.1zm6.6 8.6c0-.3 0-.6-.1-.8-.1-.3-.2-.5-.4-.7-.2-.2-.4-.3-.6-.5-.2-.1-.5-.2-.7-.2h-4.7v4.2h4.6c.3 0 .5-.1.8-.2.2-.1.5-.2.6-.4.2-.2.3-.4.4-.7.1-.2.1-.5.1-.7zM109.601 45c-.6 0-1.1-.1-1.6-.3-.5-.2-.9-.4-1.3-.8-.4-.3-.6-.7-.8-1.2-.2-.4-.3-.9-.3-1.5 0-.5.1-1.1.4-1.5.2-.5.6-.9 1-1.2.4-.3 1-.6 1.6-.8.6-.2 1.3-.3 2-.3.5 0 1 0 1.5.1s.9.2 1.3.4v-.7c0-.8-.2-1.4-.7-1.8-.4-.4-1.1-.6-2-.6-.6 0-1.2.1-1.8.3-.6.2-1.2.6-1.8 1l-.9-1.9c1.5-1 3.1-1.5 4.9-1.5 1.7 0 3 .4 3.9 1.2.9.8 1.4 2 1.4 3.6v3.6c0 .3.1.5.2.7.1.1.3.2.6.2v2.5c-.3.1-.5.1-.8.1h-.6c-.6 0-1-.1-1.3-.4-.3-.2-.5-.6-.6-1l-.1-.6c-.5.7-1.2 1.2-1.9 1.6-.6.7-1.4.8-2.3.8zm.9-2.1c.5 0 1-.1 1.4-.3.5-.2.8-.4 1.1-.7.3-.3.5-.5.5-.8v-1.3c-.4-.1-.7-.2-1.2-.3-.4-.1-.8-.1-1.2-.1-.8 0-1.4.2-1.9.5s-.7.8-.7 1.3.2.9.6 1.3c.3.2.8.4 1.4.4zM126.201 35.7c-.9 0-1.7.2-2.4.5s-1.2.8-1.5 1.5v7.1h-3V33.1h2.7v2.5c.4-.8.9-1.4 1.6-1.9.6-.5 1.3-.7 2-.7H126.201v2.7zM139.201 43.4v1.4h-10.6V29h10.4v1.4h-8.9v5.7h7.8v1.3h-7.8v6h9.1zM142.2 33.2l3.5 4.5.2.3.2-.3 3.5-4.5h1.6l-4.4 5.8 4.4 5.8h-1.6l-3.5-4.5-.2-.3-.2.3-3.5 4.5h-1.7L145 39l-4.4-5.8h1.6zM155.9 45c-.6 0-1.1-.1-1.6-.3-.5-.2-.9-.4-1.3-.8-.3-.3-.6-.7-.8-1.1-.2-.4-.3-.9-.3-1.4 0-.5.1-1 .4-1.5.2-.4.6-.8 1-1.1.4-.3.9-.6 1.5-.7.6-.2 1.3-.3 2-.3.6 0 1.2.1 1.8.2.6.1 1.2.3 1.6.4v-1c0-1-.3-1.8-.9-2.4-.6-.6-1.4-.9-2.4-.9-.6 0-1.2.1-1.9.4-.6.2-1.2.6-1.9 1l-.5-1c.8-.5 1.5-.9 2.2-1.1.7-.2 1.5-.4 2.2-.4 1.4 0 2.5.4 3.4 1.2.8.8 1.2 1.9 1.2 3.4v5.2c0 .4.2.6.5.6v1.3h-.6c-.3 0-.6-.1-.8-.3-.2-.2-.4-.4-.4-.8v-.9c-.5.7-1.2 1.2-2 1.6-.7.6-1.6.7-2.4.7zm.4-1.1c.7 0 1.3-.1 2-.4.7-.3 1.2-.7 1.6-1.2.1-.1.2-.3.3-.4.1-.2.1-.3.1-.4v-1.9c-.5-.2-1-.3-1.6-.4-.6-.1-1.1-.2-1.6-.2-1.1 0-2 .2-2.6.7-.7.4-1 1-1 1.8 0 .3.1.6.2.9.1.3.3.6.5.8.2.2.5.4.9.6.3 0 .7.1 1.2.1zM182.3 44.8h-1.5v-6.5c0-1.4-.2-2.3-.6-3-.4-.6-1.1-1-1.9-1-.4 0-.9.1-1.3.2-.4.2-.8.4-1.1.7-.3.3-.6.7-.9 1.1-.3.4-.4.9-.6 1.3v7.1h-1.5v-6.5c0-1.4-.2-2.4-.6-3-.4-.6-1.1-.9-1.9-.9-.9 0-1.7.3-2.3.9-.7.6-1.2 1.4-1.5 2.4v7.1H165V33.2h1.4v2.6c.5-.9 1.1-1.6 1.9-2.1.8-.5 1.6-.7 2.6-.7s1.8.3 2.4.8c.6.5 1 1.3 1.1 2.2 1.1-2 2.6-3 4.5-3 .6 0 1.2.1 1.6.4.5.2.8.6 1.1 1 .3.4.5 1 .6 1.6.1.6.2 1.3.2 2.1v6.7h-.1z"/>
        <path fill="#2AAEBC" d="M90.6 58.5c0-1 .2-1.9.5-2.9.3-.9.8-1.8 1.5-2.5.6-.7 1.4-1.3 2.4-1.8.9-.5 2-.7 3.2-.7 1.4 0 2.601.3 3.701 1 1 .6 1.8 1.5 2.3 2.5l-2.4 1.6c-.2-.4-.4-.8-.7-1.1-.3-.3-.6-.5-.9-.7-.3-.2-.7-.3-1-.4-.4-.1-.7-.1-1-.1-.7 0-1.4.2-1.9.5-.6.3-1 .7-1.4 1.2-.4.5-.6 1.1-.8 1.7-.2.6-.3 1.3-.3 1.9 0 .7.1 1.4.3 2 .2.6.5 1.2.9 1.7s.9.9 1.4 1.2c.5.3 1.2.4 1.8.4.3 0 .7 0 1-.1.4-.1.7-.2 1-.4.3-.2.6-.4.9-.7.3-.3.5-.7.7-1.1l2.5 1.4c-.2.6-.6 1.1-1 1.6-.5.5-1 .8-1.5 1.1-.6.3-1.2.6-1.8.7-.6.2-1.3.2-1.9.2-1.1 0-2.1-.2-3-.7-.9-.5-1.7-1.1-2.4-1.9-.7-.8-1.2-1.6-1.5-2.6-.4-1-.6-2-.6-3zM111.5 66.7c-1 0-1.8-.2-2.6-.5s-1.4-.8-1.9-1.3c-.5-.6-.9-1.2-1.2-1.9-.3-.7-.4-1.5-.4-2.3 0-.8.1-1.6.4-2.3.3-.7.7-1.4 1.2-1.9.5-.6 1.2-1 1.9-1.3.8-.3 1.6-.5 2.6-.5s1.8.2 2.6.5 1.4.8 1.9 1.3c.5.6.9 1.2 1.2 1.9.3.7.4 1.5.4 2.3 0 .8-.1 1.6-.4 2.3-.3.7-.7 1.4-1.2 1.9-.5.6-1.2 1-1.9 1.3-.8.4-1.7.5-2.6.5zm-3.1-6c0 .5.1 1 .2 1.4.2.4.4.8.6 1.1.3.3.6.6 1 .7.4.2.8.3 1.2.3.4 0 .8-.1 1.2-.3.4-.2.7-.4 1-.7.3-.3.5-.7.6-1.1.2-.4.2-.9.2-1.4 0-.5-.1-1-.2-1.4-.2-.4-.4-.8-.6-1.1-.3-.3-.6-.6-1-.7-.4-.2-.8-.3-1.2-.3-.4 0-.8.1-1.2.3-.4.2-.7.4-1 .7-.3.3-.5.7-.6 1.1-.1.4-.2.9-.2 1.4zM123.1 66.7c-1.2 0-2.1-.4-2.7-1.2-.6-.8-.9-1.9-.9-3.4v-7.3h3v6.7c0 1.8.6 2.7 1.9 2.7.6 0 1.2-.2 1.7-.5s1-.9 1.3-1.6v-7.2h3v8.2c0 .3.1.5.2.7.1.1.3.2.6.2v2.5c-.3.1-.6.1-.8.1h-.6c-.5 0-1-.1-1.3-.4-.3-.2-.5-.6-.6-1l-.1-1c-.5.8-1.2 1.4-2 1.8-.8.5-1.7.7-2.7.7zM140.4 57.4c-.9 0-1.7.2-2.4.5s-1.2.8-1.5 1.5v7.1h-3V54.8h2.7v2.5c.4-.8.9-1.4 1.6-1.9.7-.5 1.3-.7 2-.7H140.4v2.7zM146.6 66.7c-.5 0-1 0-1.5-.1l-1.5-.3c-.5-.1-1-.3-1.4-.5l-1.2-.6 1.2-2c1.5 1 2.9 1.4 4.3 1.4.6 0 1.1-.1 1.5-.3.4-.2.5-.5.5-1s-.2-.7-.6-.9c-.4-.2-1.1-.4-2.1-.7-.8-.2-1.4-.4-1.9-.6-.5-.2-1-.4-1.3-.7-.3-.3-.6-.5-.7-.9-.1-.3-.2-.7-.2-1.2 0-.6.1-1.1.4-1.6.2-.5.6-.9 1-1.2.4-.3.9-.6 1.5-.8.6-.2 1.2-.3 1.9-.3.8 0 1.7.1 2.5.4.8.3 1.6.6 2.3 1.1l-1.2 1.9c-.7-.4-1.3-.7-1.9-.9-.6-.2-1.2-.3-1.7-.3s-1 .1-1.3.3c-.4.2-.5.5-.5 1 0 .4.2.7.5.9.3.2 1 .4 1.9.6.8.2 1.5.4 2.1.6.6.2 1.1.4 1.4.7.4.3.7.6.8.9.2.3.3.8.3 1.3 0 .6-.1 1.1-.3 1.5-.2.5-.6.9-1 1.2-.4.3-.9.6-1.5.7-.9.3-1.6.4-2.3.4zM158.801 66.7c-.9 0-1.8-.2-2.5-.5-.8-.3-1.4-.8-1.9-1.3s-.9-1.2-1.2-1.9c-.3-.7-.4-1.5-.4-2.3 0-.8.1-1.6.4-2.4.3-.7.7-1.4 1.2-1.9.5-.6 1.2-1 2-1.3.8-.3 1.6-.5 2.6-.5s1.8.2 2.6.5c.7.3 1.4.8 1.9 1.3s.9 1.2 1.2 1.9c.3.7.4 1.5.4 2.3v.6c0 .2 0 .3-.1.4h-9c0 .5.2.9.3 1.2.1.3.4.7.7.9.3.2.6.4 1 .6.4.1.7.2 1.1.2.6 0 1.2-.1 1.7-.4.5-.3.9-.7 1.1-1.1l2.6.7c-.4.9-1.1 1.6-2.1 2.2-1.2.5-2.3.8-3.6.8zm3-7c-.1-.9-.4-1.6-1-2.1s-1.3-.8-2.1-.8c-.4 0-.8.1-1.1.2-.3.1-.7.3-.9.6-.3.3-.5.6-.7.9-.2.4-.3.8-.3 1.2h6.1z"/>
        <path stroke="#99A4B5" stroke-miterlimit="10" d="M72.7 0v74"/>
        <path fill="url(#paint0_linear)" d="M33.9 70.2c6-.2 11.4-2.8 15.4-6.7 4.2-4.2 6.7-9.9 6.7-16.3S53.4 35.1 49.2 31c-3.9-4-9.2-6.5-15.2-6.7 10.6 3.1 15 13.4 15.8 21.4 1 10.5-6.6 22.2-15.9 24.5zm-10.9 0c6.3 0 12.1-2.6 16.3-6.7 4.2-4.2 6.7-9.9 6.7-16.3 0-6.3-2.6-12.1-6.7-16.3-4.2-4.2-9.9-6.7-16.3-6.7h-1.2v6.1H23c4.7 0 8.9 1.9 11.9 4.9 3 3 4.9 7.3 4.9 11.9 0 4.7-1.9 8.9-4.9 11.9-3 3-7.3 4.9-11.9 4.9-4.7 0-8.9-1.9-11.9-4.9-1.7-1.7-3-3.7-3.9-6-1.3-3.4-1.1-6.2-1.1-9.7V14.4l3.9 2.2v26.8c0 5.9-.3 9.7 4.6 14.2 2.4 2.2 5.6 3.7 9.5 4-6.3-3.9-8-9.3-8-16.5v-32C10.7 9.9 5.4 6.7 0 3.4v43.8c0 6.3 2.6 12.1 6.7 16.3 4.2 4.1 9.9 6.7 16.3 6.7z"/>
    </g>
    <defs>
        <linearGradient id="paint0_linear" x1="0" x2="55.968" y1="36.797" y2="36.797" gradientUnits="userSpaceOnUse">
            <stop stop-color="#00A8D4"/>
            <stop offset="1" stop-color="#0ACCAB"/>
        </linearGradient>
        <clipPath id="clip0">
            <path fill="#fff" d="M0 0H182.3V74H0z"/>
        </clipPath>
    </defs>
</svg>
