<svg xmlns="http://www.w3.org/2000/svg" width="18" height="18" fill="none" viewBox="0 0 18 18">
    <g clip-path="url(#clip0)">
        <path fill="#000" d="M1.594 9.95L.198 11.389c-.27.278-.263.722.015.992.136.132.313.198.489.198.183 0 .366-.071.503-.213l1.396-1.439c.27-.278.263-.722-.015-.992s-.723-.263-.992.015zM4.842 10.403c-.387 0-.701.314-.701.702v6.176c0 .387.314.701.701.701.388 0 .702-.314.702-.701v-6.176c0-.388-.314-.702-.702-.702zM7.579 8.86c-.388 0-.702.314-.702.702v7.719c0 .388.314.702.702.702.387 0 .701-.314.701-.702V9.56c0-.387-.314-.701-.701-.701zM15.895.018h-2.106c-.387 0-.701.314-.701.701 0 .388.314.702.701.702h1.85l-5.153 5.152c-.138.138-.319.217-.498.217h-.011c-.173-.004-.349-.083-.483-.217l-.825-.825c-.404-.404-.94-.638-1.472-.643h-.015c-.55 0-1.099.24-1.509.661L4.17 7.276c-.273.276-.272.72.003.993.136.137.315.205.495.205s.36-.07.497-.207L6.67 6.754l.007-.006c.146-.151.337-.24.509-.24.163.002.347.089.49.232l.825.825c.395.395.91.618 1.45.628.561.01 1.118-.218 1.528-.628l5.117-5.117v1.745c0 .388.315.702.702.702.388 0 .702-.314.702-.702v-2.07C18 .962 17.055.018 15.895.018zM2.072 13.562c-.388-.002-.704.313-.704.701v3.018c0 .387.314.702.702.702.388 0 .702-.315.702-.702v-3.018c0-.386-.313-.7-.7-.701zM15.86 6.018c-.388 0-.702.314-.702.701v10.562c0 .387.314.702.702.702.387 0 .702-.315.702-.702V6.719c0-.387-.314-.701-.702-.701zM10.316 9.737c-.388 0-.702.314-.702.702v6.842c0 .387.314.702.702.702.388 0 .702-.315.702-.702v-6.842c0-.388-.314-.702-.702-.702zM13.085 8.403c-.387.002-.7.316-.7.702v8.176c0 .387.315.701.703.701.387 0 .701-.314.701-.701V9.105c0-.389-.316-.703-.704-.702z"/>
    </g>
    <defs>
        <clipPath id="clip0">
            <path fill="#000" d="M0 0H18V18H0z"/>
        </clipPath>
    </defs>
</svg>
