<svg xmlns="http://www.w3.org/2000/svg" width="21" height="21" fill="none" viewBox="0 0 21 21">
    <g fill="#fff" clip-path="url(#clip0)">
        <path d="M18.318 5.102L13.396.18c-.115-.115-.272-.18-.435-.18H4.348C3.33 0 2.502.828 2.502 1.846v17.308c0 1.018.828 1.846 1.846 1.846h12.304c1.018 0 1.846-.828 1.846-1.846V5.537c0-.168-.07-.325-.18-.435zm-4.742-3.001l2.822 2.82H14.19c-.339 0-.615-.275-.615-.614V2.1zm3.076 17.669H4.348c-.34 0-.616-.276-.616-.616V1.846c0-.34.276-.616.616-.616h7.998v3.077c0 1.017.828 1.845 1.845 1.845h3.077v13.002c0 .34-.276.616-.616.616z"/>
        <path d="M14.191 8.695H6.81c-.34 0-.616.276-.616.616 0 .34.276.615.616.615h7.382c.34 0 .616-.276.616-.615 0-.34-.276-.616-.616-.616zM14.191 11.156H6.81c-.34 0-.616.276-.616.615 0 .34.276.616.616.616h7.382c.34 0 .616-.276.616-.616 0-.34-.276-.615-.616-.615zM14.191 13.617H6.81c-.34 0-.616.276-.616.615 0 .34.276.616.616.616h7.382c.34 0 .616-.276.616-.616 0-.34-.276-.615-.616-.615zM11.73 16.078H6.81c-.34 0-.616.276-.616.615 0 .34.276.616.616.616h4.921c.34 0 .616-.276.616-.616 0-.34-.276-.615-.616-.615z"/>
    </g>
    <defs>
        <clipPath id="clip0">
            <path fill="#fff" d="M0 0H21V21H0z"/>
        </clipPath>
    </defs>
</svg>
