<svg xmlns="http://www.w3.org/2000/svg" width="19" height="21" fill="none" viewBox="0 0 19 21">
    <path fill="#fff" fill-rule="evenodd" d="M15.109 7.911v3.107c0 2.134.812 4.028 2.414 5.628.092.09.125.226.086.349-.039.123-.143.214-.27.236l-3.263.566c-.605.105-1.162.191-1.693.262-.6 1.182-1.778 1.941-3.066 1.941-1.288 0-2.467-.758-3.067-1.94-.533-.07-1.092-.157-1.7-.263l-3.265-.566c-.126-.022-.23-.113-.27-.236-.038-.124-.005-.258.086-.35 1.53-1.527 2.306-3.42 2.306-5.627V7.909c.014-2.183 1.54-3.863 3.045-4.56.352-.163.714-.294 1.082-.393v-.229c0-.952.772-1.727 1.72-1.727s1.72.775 1.72 1.727v.199c.408.102.81.24 1.201.42 1.363.625 2.948 2.196 2.934 4.565zm-5.855-6.22c-.569 0-1.032.465-1.032 1.036v.08c.683-.112 1.378-.116 2.064-.017v-.063c0-.571-.463-1.036-1.032-1.036zm.063 17.618c-.871 0-1.685-.435-2.207-1.145.769.08 1.486.12 2.203.12.72 0 1.44-.04 2.211-.121-.522.71-1.336 1.146-2.207 1.146zm2.806-1.912c.571-.073 1.176-.166 1.836-.28l2.633-.457c-1.423-1.62-2.171-3.558-2.171-5.642V7.91c.012-1.91-1.263-3.352-2.532-3.935-.425-.195-.867-.338-1.315-.432h-.014c-.857-.176-1.759-.167-2.606.024h-.006l-.005.001c-.41.095-.814.23-1.203.409-1.308.606-2.633 2.058-2.645 3.935v3.107c0 2.174-.693 4.068-2.063 5.641l2.634.457c.663.114 1.27.208 1.844.281h.003c.25.032.492.06.73.084l.024.002c.213.021.421.038.627.053l.129.009c.182.012.36.021.539.028l.057.003.057.002c.428.014.85.014 1.278 0l.066-.003.045-.002c.18-.007.362-.016.546-.028l.12-.008c.212-.016.427-.034.647-.056h.005c.24-.024.485-.052.737-.084h.003z" clip-rule="evenodd"/>
    <path fill="#fff" d="M15.109 7.911h-.1.1zm2.414 8.735l-.07.07.07-.07zm.086.349l-.095-.03.095.03zm-.27.236l-.017-.098.017.098zm-3.263.566l-.018-.098.018.098zm-1.693.262l-.013-.099-.052.007-.024.047.09.045zm-6.133.001l.09-.045-.024-.047-.053-.007-.013.1zm-1.7-.263l-.018.099.018-.099zm-3.265-.566l-.017.099.017-.099zm-.184-.585l-.07-.071.07.07zm2.306-8.737h-.1.1zm3.045-4.56l.042.09-.042-.09zm1.082-.393l.027.096.073-.02v-.076h-.1zm3.44-.03h-.1v.078l.075.019.024-.097zm1.201.42l-.042.09.042-.09zm-3.953-.54h-.1v.118l.116-.019-.016-.099zm2.064-.016l-.015.1.115.016V2.79h-.1zM7.11 18.164l.01-.1-.224-.023.133.182.08-.06zm4.414-.001l.081.059.134-.182-.225.023.01.1zm2.435-1.047l.017.099-.017-.099zm-1.836.28v.101l.012-.001-.012-.1zm4.469-.736l.017.098.176-.03-.118-.134-.075.066zm-2.171-8.75l-.1-.001h.1zm-2.532-3.936l.042-.09-.042.09zm-1.315-.432l.02-.098h-.005l-.015.099zm-.006 0l-.014-.098.014.099zm-.008 0l.023-.097h-.002l-.02.098zm-2.606.024l.02.098h.002l-.022-.098zm-.006 0l-.005-.099.005.1zm-.005.001l-.02-.098H7.92l.023.098zm-1.203.409l-.042-.09.042.09zM4.095 7.911h-.1.1zm-2.063 8.748l-.076-.066-.116.134.175.03.017-.098zm2.634.457l-.017.098.017-.098zm1.844.281l-.013.1h.013v-.1zm.003 0l.013-.1h-.013v.1zm.73.084l-.01.1h.002l.008-.1zm.024.002l.01-.1h-.001l-.01.1zm.627.053l-.007.1.007-.1zm.129.009l-.007.1.007-.1zm0 0l.007-.1-.007.1zm.539.028l-.004.1.004-.1zm.057.003l-.004.1.004-.1zm.057.002l-.003.1.003-.1zm1.278 0l-.003-.1.003.1zm.066-.003l.005.1-.005-.1zm.045-.002l.003.1-.003-.1zm.546-.028l-.006-.1.006.1zm.12-.008l.007.1-.007-.1zm.647-.056v-.1h-.01l.01.1zm.003 0l-.008-.1.008.1zm.002 0v.1h.01l-.01-.1zm.737-.084v-.101l-.013.002.013.099zm3.089-6.379V7.911h-.2v3.107h.2zm2.385 5.557c-1.584-1.582-2.385-3.45-2.385-5.557h-.2c0 2.163.824 4.081 2.444 5.698l.141-.141zm.11.45c.05-.159.008-.333-.11-.45l-.141.142c.065.064.088.16.06.248l.191.06zm-.348.305c.165-.028.298-.147.348-.305l-.19-.06c-.028.088-.102.152-.192.168l.034.197zm-3.263.566l3.263-.566-.034-.197-3.263.566.034.197zm-1.697.262c.532-.07 1.091-.157 1.697-.262l-.034-.197c-.604.105-1.16.19-1.689.261l.026.198zM9.316 20.1c1.329 0 2.54-.782 3.156-1.995l-.178-.091c-.584 1.15-1.73 1.886-2.977 1.886v.2zm-3.155-1.994c.616 1.212 1.828 1.994 3.156 1.994v-.2c-1.248 0-2.393-.735-2.978-1.885l-.178.09zm-1.629-.21c.61.105 1.17.192 1.705.263l.026-.198c-.53-.07-1.09-.157-1.696-.262l-.035.197zm-3.264-.566l3.264.566.035-.197-3.264-.566-.035.197zm-.348-.306c.05.16.185.277.348.306l.035-.197c-.09-.016-.164-.08-.192-.168l-.19.06zm.11-.449c-.117.118-.16.29-.11.45l.191-.06c-.027-.088-.004-.184.061-.249l-.141-.141zm2.277-5.557c0 2.18-.765 4.048-2.276 5.557l.141.142c1.55-1.547 2.335-3.466 2.335-5.699h-.2zm0-3.109v3.109h.2V7.909h-.2zM6.41 3.258c-1.531.71-3.089 2.42-3.103 4.65l.2.002c.014-2.135 1.508-3.786 2.987-4.47l-.084-.182zm1.098-.399c-.373.101-.74.233-1.098.399l.084.181c.347-.16.703-.288 1.067-.387l-.053-.193zm-.074-.132v.229h.2v-.229h-.2zM9.254.9c-1.004 0-1.82.82-1.82 1.827h.2c0-.897.727-1.627 1.62-1.627V.9zm1.82 1.827C11.073 1.72 10.257.9 9.253.9v.2c.893 0 1.62.73 1.62 1.627h.2zm0 .199v-.199h-.2v.199h.2zm1.143.329c-.397-.182-.805-.322-1.22-.426l-.048.194c.403.1.8.237 1.184.413l.084-.181zm2.992 4.657c.015-2.419-1.604-4.02-2.992-4.657l-.084.181c1.338.614 2.89 2.155 2.876 4.474l.2.002zM8.322 2.727c0-.516.419-.936.932-.936v-.2c-.625 0-1.132.51-1.132 1.136h.2zm0 .08v-.08h-.2v.08h.2zM10.3 2.69c-.695-.1-1.4-.096-2.094.017l.032.197c.673-.11 1.358-.113 2.033-.016l.029-.198zm-.114.036v.063h.2v-.063h-.2zm-.932-.936c.513 0 .932.42.932.936h.2c0-.626-.508-1.136-1.132-1.136v.2zM7.029 18.223c.54.735 1.383 1.186 2.288 1.186v-.2c-.837 0-1.622-.418-2.127-1.105l-.16.119zm2.284-.04c-.713 0-1.427-.04-2.193-.119l-.02.2c.771.079 1.492.12 2.213.12v-.2zm2.201-.12c-.769.08-1.485.12-2.201.12v.2c.724 0 1.447-.04 2.222-.12l-.021-.2zM9.317 19.41c.904 0 1.748-.452 2.288-1.187l-.161-.119c-.505.688-1.29 1.106-2.127 1.106v.2zm4.625-2.391c-.659.114-1.262.206-1.832.28l.025.198c.574-.074 1.18-.167 1.841-.281l-.034-.197zm2.633-.457l-2.633.457.034.197 2.633-.457-.034-.197zm-2.254-5.543c0 2.11.757 4.07 2.196 5.708l.15-.132c-1.408-1.602-2.146-3.517-2.146-5.576h-.2zm0-3.109v3.11h.2v-3.11h-.2zm-2.473-3.844c1.24.57 2.485 1.98 2.473 3.844h.2c.012-1.957-1.293-3.43-2.59-4.026l-.083.182zm-1.295-.425c.442.093.876.233 1.295.425l.083-.182c-.432-.198-.881-.343-1.337-.438l-.04.195zm.028.002h-.022l.03-.198c-.01-.002-.019-.002-.025-.001h-.01l.027.199zm-.043-.002c.012.003.023.003.03.003l.013-.001-.027-.198h.006c.004-.001.013 0 .023.001l-.045.195zm-2.562.024c.833-.188 1.72-.197 2.564-.023l.04-.196c-.87-.18-1.787-.17-2.648.024l.044.195zm-.023.003s.01 0 .02-.003l-.04-.196.01-.001s.002 0 0 0l.01.2zm.01-.002l-.009.002h-.001l-.01-.2-.02.002.04.196zm-1.18.402c.381-.177.778-.31 1.182-.402L7.92 3.47c-.416.096-.826.232-1.222.415l.084.182zM4.194 7.912C4.207 6.082 5.5 4.66 6.782 4.067l-.084-.182c-1.333.618-2.69 2.1-2.703 4.025l.2.002zm0 3.106V7.911h-.2v3.107h.2zm-2.088 5.707c1.386-1.592 2.088-3.51 2.088-5.707h-.2c0 2.15-.685 4.021-2.039 5.575l.151.132zm2.576.292l-2.634-.456-.034.197 2.634.456.034-.197zm1.84.28c-.572-.072-1.178-.165-1.84-.28l-.034.197c.664.115 1.273.21 1.848.282l.025-.198zm-.01 0H6.51v.2h.003v-.2zm.74.084c-.237-.024-.479-.052-.727-.083l-.026.198c.25.032.494.06.733.084l.02-.199zm.023.002l-.024-.002-.017.2.023.001.018-.199zm.625.053c-.205-.014-.412-.032-.624-.053l-.02.2c.214.02.423.038.63.053l.014-.2zm.128.01l-.128-.01-.014.2.13.009.012-.2zm0 0v-.001l-.012.2.012-.2zm.537.027c-.178-.007-.356-.016-.536-.028l-.013.2c.182.012.362.02.54.028l.009-.2zm.058.003l-.059-.003-.007.2.057.003.009-.2zm.056.002l-.056-.002-.01.2.059.002.007-.2zm1.27 0c-.425.014-.845.014-1.27 0l-.007.2c.43.014.854.014 1.284 0l-.007-.2zm.066-.003l-.065.003.006.2.068-.003-.01-.2zm.045-.002l-.045.002.009.2.043-.002-.007-.2zm.544-.028c-.183.012-.364.021-.544.028l.007.2c.182-.007.365-.016.55-.029l-.013-.2zm.119-.008l-.119.008.012.2.12-.009-.013-.2zm.644-.055c-.22.022-.433.04-.645.055l.015.2c.213-.016.429-.034.65-.056l-.02-.2zm.005 0h-.002.007v.2l.01-.001h.002l-.017-.2zm.01-.001h-.01l.017.2h-.007v-.2zm.724-.084c-.25.032-.495.06-.734.084l.02.2c.241-.025.487-.053.74-.085l-.026-.198zm.016 0h-.003v.2h.003v-.2z"/>
    <circle cx="14.854" cy="6.146" r="3.021" fill="#2AAEBC" stroke="#363353" stroke-width=".5"/>
</svg>
