<svg xmlns="http://www.w3.org/2000/svg" width="23" height="26" fill="none" viewBox="0 0 23 26">
    <path fill="#FFF" fill-rule="evenodd" d="M18.822 9.73v3.924c0 2.697 1.026 5.088 3.05 7.109.115.115.157.285.108.44-.05.157-.18.272-.34.3l-4.123.715c-.764.132-1.468.241-2.138.33C14.62 24.043 13.132 25 11.505 25c-1.626 0-3.115-.958-3.873-2.45-.673-.09-1.38-.2-2.148-.332l-4.123-.715c-.16-.028-.292-.143-.341-.3-.049-.155-.007-.325.108-.44 1.933-1.93 2.913-4.321 2.913-7.109V9.727c.017-2.757 1.944-4.88 3.846-5.76.444-.206.902-.37 1.367-.497v-.288c0-1.203.974-2.182 2.172-2.182 1.198 0 2.172.979 2.172 2.182v.25c.517.13 1.025.304 1.518.53 1.721.791 3.724 2.776 3.706 5.768zm-7.396-7.857c-.719 0-1.303.587-1.303 1.309v.1c.862-.14 1.74-.146 2.606-.02v-.08c0-.722-.584-1.31-1.303-1.31zm.08 22.254c-1.1 0-2.128-.55-2.788-1.447.97.1 1.877.151 2.783.151.909 0 1.818-.05 2.793-.152-.66.899-1.689 1.448-2.789 1.448zm3.543-2.415c.723-.093 1.487-.21 2.32-.355l3.326-.576c-1.797-2.046-2.742-4.494-2.742-7.126V9.728c.015-2.414-1.595-4.235-3.198-4.971-.537-.247-1.095-.427-1.662-.545h-.017c-1.083-.223-2.222-.212-3.293.03h-.006l-.007.001c-.518.12-1.028.289-1.52.516-1.651.766-3.325 2.6-3.34 4.97v3.925c0 2.746-.876 5.139-2.607 7.126l3.328.577c.837.145 1.604.263 2.329.355h.004c.315.04.622.076.922.106l.03.002c.269.027.532.05.792.068l.164.01c.229.016.455.027.68.037l.072.003.073.003c.54.018 1.073.018 1.613 0l.084-.004.056-.002c.228-.01.458-.021.69-.037l.151-.01c.269-.019.54-.042.817-.07h.008c.303-.03.612-.066.93-.106h.004z" clip-rule="evenodd"/>
    <path fill="#FFF" d="M18.822 9.73h-.1.1zm3.05 11.033l-.071.07.07-.07zm.108.44l-.096-.03.096.03zm-.34.3l-.018-.099.017.099zm-4.123.715l-.017-.099.017.099zm-2.138.33l-.013-.099-.053.007-.023.047.089.046zm-7.747.002l.089-.045-.024-.047-.052-.007-.013.099zm-2.148-.332l-.017.098.017-.098zm-4.123-.715l-.018.098.018-.098zm-.233-.74l-.07-.07.07.07zM4.041 9.727h-.1.1zm3.846-5.76l.042.09-.042-.09zm1.367-.497l.026.097.074-.02V3.47h-.1zm4.344-.038h-.1v.078l.076.02.024-.098zm1.518.53l-.042.092.042-.091zm-4.993-.68h-.1v.117l.116-.019-.016-.098zm2.606-.02l-.014.098.114.017V3.26h-.1zM8.718 22.68l.01-.1-.224-.022.133.182.08-.06zm5.576-.001l.08.06.134-.183-.224.024.01.099zm3.075-1.322l.017.099-.017-.099zm-2.32.355v.1l.013-.001-.012-.1zm5.646-.931l.017.098.176-.03-.118-.134-.075.066zM17.953 9.728l-.1-.001h.1zm-3.198-4.971l.042-.091-.042.09zm-1.662-.545l.02-.098-.004-.001-.016.099zm-.008 0l-.013-.1.013.1zm-.009 0l.023-.097h-.002l-.02.097zm-3.293.03l.02.098h.003l-.023-.098zm-.006 0l-.005-.1.005.1zm-.007.001l-.02-.098h-.002l.022.098zm-1.52.516l-.041-.09.042.09zM4.91 9.73h-.1.1zM2.303 20.78l-.075-.066-.117.134.175.03.017-.098zm3.328.577l-.017.098.017-.098zm2.329.355l-.013.1h.013v-.1zm.004 0l.012-.1h-.012v.1zm.922.106l-.01.1h.002l.008-.1zm.03.002l.01-.1h-.001l-.009.1zm.792.068l-.007.1.007-.1zm.164.01l.006-.099-.006.1zm.68.037l-.005.1.005-.1zm.145.006l-.004.1.004-.1zm1.613 0l-.003-.1.003.1zm.084-.004l.005.1-.005-.1zm.056-.002l.004.1-.004-.1zm.69-.037l-.005-.1.006.1zm.151-.01l.007.1-.007-.1zm.817-.07v-.1l-.01.001.01.1zm.008 0v.1h.01l-.01-.1zm.93-.106v-.101l-.012.001.012.1zm3.876-8.058V9.73h-.2v3.924h.2zm3.02 7.038c-2.006-2.003-3.02-4.37-3.02-7.038h-.2c0 2.725 1.038 5.142 3.079 7.18l.141-.142zm.133.542c.06-.191.01-.4-.133-.542l-.141.142c.09.089.121.22.083.34l.191.06zm-.419.367c.198-.034.359-.176.42-.367l-.192-.06c-.038.12-.139.209-.262.23l.034.197zm-4.122.715l4.122-.715-.034-.197-4.122.715.034.197zm-2.142.332c.672-.09 1.377-.199 2.142-.332l-.035-.197c-.762.133-1.465.241-2.133.33l.026.199zM11.505 25.1c1.667 0 3.19-.982 3.963-2.506l-.178-.09c-.742 1.461-2.198 2.396-3.785 2.396v.2zm-3.962-2.505c.774 1.524 2.296 2.505 3.962 2.505v-.2c-1.586 0-3.042-.934-3.784-2.395l-.178.09zm-2.076-.279c.769.134 1.477.243 2.152.333l.026-.198c-.671-.09-1.377-.199-2.144-.332l-.034.197zm-4.124-.715l4.124.715.034-.197-4.123-.715-.035.197zm-.418-.367c.06.191.221.333.418.367l.035-.197c-.124-.021-.225-.11-.263-.23l-.19.06zm.132-.542c-.141.142-.192.35-.132.541l.19-.06c-.037-.12-.005-.25.084-.34l-.142-.14zm2.884-7.038c0 2.762-.97 5.128-2.883 7.038l.14.142c1.953-1.949 2.943-4.366 2.943-7.18h-.2zm0-3.927v3.927h.2V9.727h-.2zm3.904-5.851c-1.928.893-3.886 3.045-3.904 5.85l.2.002c.017-2.71 1.912-4.802 3.788-5.67l-.084-.182zm1.383-.502c-.47.127-.934.294-1.383.502l.084.182c.439-.204.891-.367 1.351-.491l-.052-.193zm-.074-.192v.288h.2v-.288h-.2zM11.426.9c-1.253 0-2.272 1.024-2.272 2.282h.2c0-1.148.93-2.082 2.072-2.082V.9zm2.272 2.282C13.698 1.924 12.68.9 11.426.9v.2c1.142 0 2.072.934 2.072 2.082h.2zm0 .25v-.25h-.2v.25h.2zm1.46.44c-.5-.23-1.013-.406-1.536-.537l-.048.194c.51.128 1.013.301 1.5.525l.084-.182zm3.764 5.858c.018-3.041-2.018-5.056-3.764-5.858l-.084.182c1.696.778 3.666 2.732 3.647 5.675l.2.001zm-8.7-6.548c0-.667.541-1.21 1.204-1.21v-.2c-.774 0-1.403.633-1.403 1.41h.2zm0 .1v-.1h-.2v.1h.2zm2.521-.12c-.875-.126-1.764-.12-2.636.021l.032.197c.852-.138 1.72-.143 2.576-.02l.028-.198zm-.114.02v.08h.2v-.08h-.2zm-1.203-1.21c.663 0 1.203.543 1.203 1.21h.2c0-.777-.629-1.41-1.403-1.41v.2zM8.637 22.74c.678.921 1.735 1.487 2.868 1.487v-.2c-1.066 0-2.064-.532-2.707-1.406l-.16.119zm2.864-.009c-.902 0-1.805-.05-2.773-.15l-.02.199c.973.1 1.883.151 2.793.151v-.2zm2.783-.151c-.972.1-1.878.151-2.783.151v.2c.913 0 1.825-.05 2.803-.152l-.02-.2zm-2.779 1.647c1.134 0 2.192-.566 2.87-1.489l-.162-.118c-.642.874-1.641 1.407-2.707 1.407v.2zm5.847-2.968c-.832.144-1.595.261-2.315.353l.025.199c.724-.093 1.49-.21 2.324-.355l-.034-.197zm3.326-.577l-3.326.577.034.197 3.326-.577-.034-.197zm-2.825-7.027c0 2.658.954 5.129 2.767 7.192l.15-.132c-1.782-2.028-2.717-4.453-2.717-7.06h-.2zm0-3.927v3.927h.2V9.728h-.2zm-3.14-4.88c1.574.723 3.155 2.512 3.14 4.879l.2.001c.015-2.46-1.625-4.313-3.256-5.062l-.084.181zm-1.64-.539c.56.118 1.11.295 1.64.538l.084-.181c-.545-.25-1.11-.432-1.683-.552l-.041.195zm.026.002H13.078l.03-.198c-.019-.003-.036 0-.036 0l.027.198zm-.045-.002c.013.003.024.004.031.003l.014-.001-.027-.198h.004c.005 0 .013 0 .023.002l-.045.194zm-3.248.03c1.056-.238 2.181-.25 3.25-.029l.04-.196c-1.096-.226-2.25-.215-3.335.03l.045.195zm-.024.003l.021-.002-.04-.196.009-.002s.001 0 0 0l.01.2zm.008-.001l-.008.001c-.001 0-.002 0 0 0l-.01-.2s-.01 0-.022.003l.04.196zm-1.497.509c.484-.224.987-.392 1.5-.51l-.045-.194c-.525.12-1.041.292-1.54.522l.085.182zM5.01 9.73c.014-2.323 1.656-4.127 3.283-4.88l-.084-.182c-1.678.778-3.384 2.641-3.4 5.061l.2.001zm0 3.924V9.73h-.2v3.924h.2zm-2.631 7.192c1.746-2.006 2.63-4.423 2.63-7.192h-.2c0 2.723-.867 5.092-2.581 7.06l.15.132zm3.269.412l-3.328-.576-.034.197 3.328.576.034-.197zm2.324.355c-.722-.092-1.488-.21-2.324-.355l-.034.197c.838.146 1.607.264 2.333.356l.025-.198zm-.008 0H7.96v.2h.004v-.2zm.932.105c-.3-.03-.605-.065-.92-.105l-.025.198c.316.04.624.076.925.106l.02-.199zm.029.003l-.03-.003-.017.2.03.002.017-.2zm.79.067c-.259-.018-.521-.04-.789-.067l-.02.199c.27.027.534.049.795.068l.015-.2zm.163.011l-.163-.01-.014.199.164.01.013-.199zm.678.036c-.224-.01-.45-.02-.678-.036l-.013.2c.23.015.457.026.682.036l.009-.2zm.073.003l-.074-.003-.007.2.072.003.009-.2zm.071.003l-.071-.003-.01.2c.025 0 .05.002.074.003l.007-.2zm1.607 0c-.539.018-1.07.018-1.607 0l-.007.2c.543.018 1.078.018 1.62 0l-.006-.2zm.083-.004l-.083.003.006.2c.029 0 .058-.002.086-.003l-.01-.2zm.056-.002l-.056.002.009.2.055-.002-.008-.2zm.688-.036c-.232.015-.46.027-.688.036l.008.2c.23-.01.46-.021.693-.037l-.013-.2zm.15-.01l-.15.01.013.2.151-.01-.014-.2zm.814-.07c-.276.028-.546.05-.814.07l.014.2c.27-.02.542-.043.82-.071l-.02-.199zm.005 0h.005v.2l.013-.001-.018-.2zm.013 0h-.013l.018.199h-.005v-.2zm.918-.107c-.318.04-.626.076-.928.107l.02.199c.304-.031.614-.066.933-.107l-.025-.199zm.015 0h-.002v.2h.002v-.2z"/>
    <circle cx="18.5" cy="7.5" r="3.75" fill="#2AAEBC" stroke="#fff" stroke-width=".5"/>
</svg>
