<svg xmlns="http://www.w3.org/2000/svg" width="17" height="17" fill="none" viewBox="0 0 17 17">
    <g clip-path="url(#clip0)">
        <path fill="#fff" d="M16.54 3.067L13.932.461c-.614-.615-1.608-.615-2.223 0L1.478 10.693c-.072.072-.123.163-.148.262l-1.313 5.35c-.101.41.271.778.678.678l5.35-1.313c.1-.025.19-.076.262-.148L16.54 5.29c.614-.614.615-1.608 0-2.223zM1.326 15.673l.053-.218.165.165-.218.053zm1.491-.366l-1.125-1.125.49-1.992 2.628 2.628-1.993.49zm3.093-.975l-3.243-3.243 8.374-8.374 3.243 3.243-8.374 8.374zm9.835-9.835l-.648.647-3.242-3.243.647-.647c.176-.176.46-.176.637 0l2.606 2.606c.176.176.176.46 0 .637z"/>
    </g>
    <defs>
        <clipPath id="clip0">
            <path fill="#fff" d="M0 0H17V17H0z"/>
        </clipPath>
    </defs>
</svg>
