<svg xmlns="http://www.w3.org/2000/svg" width="20" height="20" fill="none" viewBox="0 0 20 20">
    <path fill="#3F434A" fill-rule="evenodd" d="M12.519 11.493c.536.25.892.742 1.066 1.477.175.735.106 1.437-.207 2.107-.066.142-.175.24-.326.296-.151.056-.297.05-.438-.015l-3.486-1.624-2.257 3.756c-.041.06-.096.103-.163.128-.068.024-.134.022-.2-.009l-.007-.004c-.147-.068-.199-.181-.157-.341l1.233-4.252-3.283-1.53c-.14-.065-.238-.174-.293-.325-.055-.152-.049-.298.017-.44.313-.67.807-1.175 1.483-1.514.676-.338 1.282-.383 1.818-.133l1.954-4.185c-.282-.131-.478-.348-.587-.651-.109-.303-.097-.597.035-.88.132-.283.35-.48.652-.592.303-.111.595-.101.876.03l5.2 2.423c.282.13.477.348.586.651.11.303.098.596-.034.88-.132.283-.35.48-.652.591-.303.112-.595.102-.877-.03l-1.953 4.186zm-4.38-1.71c.072-.027.125-.078.16-.154l1.702-3.647c.035-.076.04-.15.014-.222-.025-.071-.076-.124-.152-.16-.075-.035-.148-.04-.22-.013-.07.026-.124.077-.16.153l-1.7 3.648c-.036.076-.04.15-.015.22.026.072.076.126.152.16.075.036.148.04.22.014z" clip-rule="evenodd"/>
</svg>
