<svg xmlns="http://www.w3.org/2000/svg" width="19" height="19" fill="none" viewBox="0 0 19 19">
    <g clip-path="url(#clip0)">
        <path fill="#fff" stroke="#fff" stroke-width=".5" d="M18.632 3.818H17.38v-.427c.006-.169-.103-.32-.266-.368-.866-.227-1.759-.341-2.655-.339-1.473 0-3.48.332-4.965 1.842C8.021 3 6 2.684 4.53 2.684c-.896-.002-1.789.112-2.655.339-.163.047-.272.2-.266.368v.424H.37c-.204 0-.369.165-.369.368v11.763c0 .204.165.368.368.368.064 0 .126-.016.18-.047.038-.019 3.72-2.033 8.862-.737h.088c.03.004.06.004.089 0 5.156-1.307 8.838.703 8.86.737.114.065.255.065.369 0 .113-.066.183-.186.184-.317V4.187c0-.204-.165-.369-.368-.369zM.737 15.361V4.555h.88v9.237c-.003.203.16.37.364.372.02 0 .04-.001.06-.004.761-.116 1.53-.178 2.301-.184 1.068-.019 2.13.142 3.145.475-2.29-.277-4.614.036-6.75.91zm3.605-2.118c-.67.002-1.339.044-2.003.129v-9.69c.717-.16 1.449-.241 2.184-.243 1.377 0 3.277.317 4.596 1.805l.01 9.174c-.765-.501-2.26-1.175-4.787-1.175zm5.524-8c1.319-1.472 3.22-1.804 4.597-1.804.734.002 1.467.084 2.184.243v9.69c-.661-.085-1.327-.13-1.993-.133-2.511 0-4.01.674-4.788 1.175v-9.17zm8.394 10.118c-2.14-.876-4.47-1.19-6.766-.91 1.02-.334 2.088-.495 3.16-.475.776.004 1.55.064 2.317.18.2.03.389-.107.42-.309.002-.02.004-.04.003-.059V4.555h.88l-.014 10.806z"/>
    </g>
    <defs>
        <clipPath id="clip0">
            <path fill="#fff" d="M0 0H19V19H0z"/>
        </clipPath>
    </defs>
</svg>
