<svg xmlns="http://www.w3.org/2000/svg" width="40" height="40" fill="none" viewBox="0 0 40 40">
    <mask id="23vwsj15ga" width="40" height="40" x="0" y="0" maskUnits="userSpaceOnUse">
        <rect width="40" height="40" fill="#fff" rx="14"/>
    </mask>
    <g mask="url(#23vwsj15ga)">
        <rect width="40" height="40" fill="#E1F4F6" rx="14"/>
        <g clip-path="url(#clip0)">
            <path fill="#2AAEBC" d="M27.59 18.611c-.05-.304-.336-.512-.64-.463-.305.048-.513.335-.464.64l.002.01c.569 3.349-1.685 6.525-5.035 7.094-3.35.57-6.526-1.685-7.095-5.034-.569-3.35 1.685-6.526 5.035-7.095 2.06-.35 4.156.37 5.567 1.91l-2.475.825c-.293.098-.451.414-.354.707.098.293.414.451.707.354l3.352-1.118c.229-.076.383-.29.383-.53V12.56c0-.309-.25-.559-.56-.559-.308 0-.558.25-.558.559v2.04c-2.877-2.736-7.428-2.622-10.165.255-2.737 2.878-2.623 7.429.255 10.166 2.877 2.736 7.428 2.622 10.165-.255 1.56-1.64 2.257-3.92 1.88-6.154z"/>
        </g>
    </g>
    <defs>
        <clipPath id="clip0">
            <path fill="#fff" d="M0 0H15V15H0z" transform="translate(13 12)"/>
        </clipPath>
    </defs>
</svg>
