<svg xmlns="http://www.w3.org/2000/svg" width="15" height="15" fill="none" viewBox="0 0 15 15">
    <g clip-path="url(#clip0)">
        <path fill="#363353" d="M14.566 2.64L13.3 1.27c-.606-.658-1.625-.706-2.292-.114-8.705 7.738-7.45 6.611-7.844 7.005-.518.517-.729 1.28-.552 1.99.112.445-.02.924-.345 1.249L.13 13.506c-.278.275-.084.752.309.752h2.84c.116 0 .228-.046.31-.129l.703-.702c.325-.325.803-.458 1.25-.347.716.18 1.477-.039 1.989-.55.391-.392-.723.816 7.039-7.673.574-.628.572-1.591-.005-2.217zM3.098 13.38H1.51l1.065-1.05.786.786-.263.263zm2.657-1.152c-.599-.15-1.234-.035-1.741.299l-.848-.848c.334-.508.448-1.142.299-1.742-.1-.395.01-.819.284-1.118l3.124 3.125c-.299.274-.722.383-1.118.284zm8.168-7.964L7.48 11.31 4.388 8.216l7.204-6.403c.307-.273.784-.25 1.063.052 0-.003-.006-.007 1.265 1.37.27.293.271.735.003 1.03zM12.18 13.38H7.964c-.243 0-.44.196-.44.438 0 .243.197.44.44.44h4.216c.242 0 .439-.197.439-.44 0-.242-.197-.439-.44-.439z"/>
    </g>
    <defs>
        <clipPath id="clip0">
            <path fill="#fff" d="M0 0H15V15H0z"/>
        </clipPath>
    </defs>
</svg>
