<svg xmlns="http://www.w3.org/2000/svg" width="15" height="15" fill="none" viewBox="0 0 15 15">
    <g clip-path="url(#clip0)">
        <path fill="#3F434A" d="M12.18 13.38H7.963c-.243 0-.44.196-.44.438 0 .243.197.44.44.44h4.215c.243 0 .44-.197.44-.44 0-.242-.197-.439-.44-.439zM1.953 11.71L.13 13.505c-.278.275-.084.752.309.752h2.84c.116 0 .228-.046.31-.129l.391-.391-2.028-2.028zM3.127 8.2c-.49.515-.688 1.258-.514 1.95.074.3.039.614-.091.887l2.134 2.134c.273-.13.587-.165.886-.09.694.173 1.435-.025 1.951-.515L3.127 8.199zM14.566 2.64L13.3 1.27c-.606-.658-1.625-.706-2.292-.114l-7.243 6.44 4.337 4.336 6.469-7.075c.574-.628.572-1.591-.005-2.217z"/>
    </g>
    <defs>
        <clipPath id="clip0">
            <path fill="#fff" d="M0 0H15V15H0z"/>
        </clipPath>
    </defs>
</svg>
