<svg xmlns="http://www.w3.org/2000/svg" width="40" height="40" fill="none" viewBox="0 0 40 40">
    <mask id="674igh9f8a" width="40" height="40" x="0" y="0" maskUnits="userSpaceOnUse">
        <rect width="40" height="40" fill="#fff" rx="14"/>
    </mask>
    <g mask="url(#674igh9f8a)">
        <rect width="40" height="40" fill="#E1F4F6" rx="14"/>
        <g clip-path="url(#clip0)">
            <path fill="#2AAEBC" d="M15.581 26.676c-.175 0-.35-.054-.498-.162-.277-.2-.406-.545-.33-.878l1.029-4.534-3.491-3.061c-.257-.224-.355-.579-.25-.904.106-.323.393-.553.732-.584l4.619-.42 1.826-4.273c.135-.314.441-.517.782-.517.34 0 .647.203.782.516l1.826 4.274 4.618.42c.34.03.627.26.732.584.106.325.008.68-.248.904l-3.491 3.06 1.029 4.535c.075.333-.054.678-.33.878-.277.2-.645.215-.935.04L20 24.174l-3.983 2.382c-.134.08-.284.12-.436.12zM20 23.15c.151 0 .301.04.436.12l3.759 2.249-.972-4.28c-.069-.304.034-.622.27-.828l3.296-2.891-4.361-.396c-.314-.029-.584-.226-.707-.516L20 12.575l-1.724 4.033c-.12.287-.39.485-.704.514l-4.361.395 3.295 2.891c.236.207.34.524.27.83l-.97 4.279 3.758-2.247c.135-.08.285-.121.436-.121zm-2.643-6.933l-.001.001zm5.285-.002v0z"/>
        </g>
    </g>
    <defs>
        <clipPath id="clip0">
            <path fill="#fff" d="M0 0H16V16H0z" transform="translate(12 11)"/>
        </clipPath>
    </defs>
</svg>
