<svg xmlns="http://www.w3.org/2000/svg" width="19" height="19" fill="none" viewBox="0 0 19 19">
    <path fill="#fff" d="M9.5 19c-1.146 0-2.078-.932-2.078-2.078v-.605c-.44-.134-.866-.31-1.273-.527l-.428.428c-.392.392-.914.608-1.469.608s-1.077-.216-1.47-.608c-.81-.81-.81-2.13 0-2.94l.428-.427c-.217-.407-.393-.833-.527-1.273h-.605c-.555 0-1.077-.216-1.47-.609C.217 10.577 0 10.055 0 9.5c0-1.146.932-2.078 2.078-2.078h.605c.134-.44.31-.866.527-1.273l-.428-.428c-.392-.392-.608-.914-.608-1.469s.216-1.077.608-1.47c.81-.81 2.13-.81 2.94 0l.427.428c.407-.217.833-.393 1.273-.527v-.605c0-.555.216-1.077.609-1.47C8.423.217 8.945 0 9.5 0c.138 0 .277.014.414.041.965.196 1.664 1.053 1.664 2.037v.605c.44.134.866.31 1.273.527l.428-.428c.392-.392.914-.608 1.469-.608s1.077.216 1.47.608c.81.81.81 2.13 0 2.94l-.428.427c.217.407.393.833.527 1.273h.605c.555 0 1.077.216 1.47.609.392.392.608.914.608 1.469 0 1.146-.932 2.078-2.078 2.078h-.605c-.134.44-.31.866-.527 1.273l.428.428c.392.392.608.914.608 1.469s-.216 1.077-.608 1.47c-.406.405-.938.607-1.47.607s-1.064-.202-1.47-.607l-.427-.428c-.407.217-.833.393-1.273.527v.605c0 .555-.216 1.076-.609 1.47-.29.29-.654.485-1.054.566h-.001c-.137.028-.276.042-.414.042zm.297-.623zm-3.745-3.923c.108 0 .216.03.313.09.553.344 1.153.593 1.785.74.269.062.46.301.46.578v1.06c0 .49.399.89.89.89.06 0 .12-.006.179-.017.17-.035.326-.12.45-.244.169-.168.262-.391.262-.63v-1.06c0-.276.19-.515.46-.578.63-.146 1.231-.395 1.784-.74.234-.145.538-.11.733.085l.75.75c.348.347.913.347 1.26 0 .168-.168.26-.392.26-.63s-.092-.462-.26-.63l-.75-.75c-.195-.195-.23-.499-.084-.733.344-.553.593-1.153.74-1.785.062-.269.301-.46.578-.46h1.06c.49 0 .89-.399.89-.89 0-.238-.092-.461-.26-.63-.169-.168-.392-.26-.63-.26h-1.06c-.277 0-.516-.191-.579-.46-.146-.632-.395-1.232-.74-1.785-.145-.234-.11-.538.085-.733l.75-.75c.347-.347.347-.913 0-1.26-.168-.168-.392-.26-.63-.26s-.462.092-.63.26l-.75.75c-.195.195-.499.23-.733.084-.553-.344-1.153-.593-1.785-.74-.269-.062-.46-.301-.46-.578v-1.06c0-.422-.299-.789-.711-.873-.059-.011-.12-.018-.179-.018-.238 0-.461.093-.63.262-.168.168-.26.391-.26.63v1.06c0 .276-.191.515-.46.578-.632.146-1.232.395-1.785.74-.234.145-.538.11-.733-.085l-.75-.75c-.348-.347-.913-.347-1.26 0-.168.168-.26.392-.26.63s.092.462.26.63l.75.75c.195.195.23.499.084.733-.344.553-.593 1.153-.74 1.785-.062.269-.301.46-.578.46h-1.06c-.49 0-.89.399-.89.89 0 .238.092.461.26.63.169.168.392.26.63.26h1.06c.277 0 .516.191.579.46.146.632.395 1.232.74 1.785.145.234.11.538-.085.733l-.75.75c-.347.348-.347.913 0 1.26.168.168.392.26.63.26s.462-.092.63-.26l.75-.75c.114-.115.266-.174.42-.174z"/>
    <path fill="#fff" d="M9.5 13.656c-2.292 0-4.156-1.864-4.156-4.156S7.208 5.344 9.5 5.344c.118 0 .235.005.348.015 1.034.085 1.995.553 2.703 1.319.713.77 1.105 1.772 1.105 2.822s-.392 2.052-1.105 2.822c-.708.766-1.67 1.235-2.705 1.32-.11.01-.228.014-.346.014zm0-7.125c-1.637 0-2.969 1.332-2.969 2.969 0 1.637 1.332 2.969 2.969 2.969.084 0 .166-.004.245-.01 1.529-.126 2.724-1.426 2.724-2.959 0-1.533-1.195-2.833-2.72-2.958-.083-.007-.165-.01-.249-.01z"/>
</svg>
