<svg xmlns="http://www.w3.org/2000/svg" width="15" height="15" fill="none" viewBox="0 0 15 15">
    <path fill="#000" d="M14.252 12.947H4.222c-.414 0-.75-.335-.75-.749 0-.413.336-.748.75-.748h10.03c.413 0 .748.335.748.748 0 .414-.335.749-.748.749zM14.252 8.248H4.222c-.414 0-.75-.335-.75-.748s.336-.749.75-.749h10.03c.413 0 .748.336.748.749s-.335.748-.748.748zM14.252 3.55H4.222c-.414 0-.75-.335-.75-.748 0-.414.336-.749.75-.749h10.03c.413 0 .748.335.748.749 0 .413-.335.748-.748.748zM1.005 3.865c.555 0 1.005-.45 1.005-1.005 0-.555-.45-1.006-1.005-1.006C.45 1.854 0 2.304 0 2.86c0 .555.45 1.005 1.005 1.005zM1.005 8.505c.555 0 1.005-.45 1.005-1.005 0-.555-.45-1.005-1.005-1.005C.45 6.495 0 6.945 0 7.5c0 .555.45 1.005 1.005 1.005zM1.005 13.145c.555 0 1.005-.45 1.005-1.005 0-.555-.45-1.005-1.005-1.005-.555 0-1.005.45-1.005 1.005 0 .555.45 1.005 1.005 1.005z"/>
</svg>
