<svg xmlns="http://www.w3.org/2000/svg" width="40" height="40" fill="none" viewBox="0 0 40 40">
    <mask id="96fyhp3qka" width="40" height="40" x="0" y="0" maskUnits="userSpaceOnUse">
        <rect width="40" height="40" fill="#fff" rx="14"/>
    </mask>
    <g mask="url(#96fyhp3qka)">
        <rect width="40" height="40" fill="#E1F4F6" rx="14"/>
    </g>
    <g fill="#2AAEBC" clip-path="url(#clip0)">
        <path d="M26.829 16.13l-3.985-3.984c-.093-.093-.22-.146-.352-.146H15.52c-.823 0-1.494.67-1.494 1.494v14.012c0 .824.67 1.494 1.495 1.494h9.96c.824 0 1.495-.67 1.495-1.494V16.482c0-.135-.057-.263-.146-.352zM22.99 13.7l2.284 2.284h-1.786c-.274 0-.498-.223-.498-.498V13.7zm2.49 14.304h-9.96c-.275 0-.498-.224-.498-.498V13.494c0-.274.223-.498.498-.498h6.474v2.49c0 .824.67 1.494 1.494 1.494h2.49v10.526c0 .274-.223.498-.498.498z"/>
        <path d="M23.488 19.04h-5.976c-.275 0-.498.222-.498.497s.223.498.498.498h5.976c.275 0 .498-.223.498-.498s-.223-.498-.498-.498zM23.488 21.031h-5.976c-.275 0-.498.223-.498.498s.223.498.498.498h5.976c.275 0 .498-.223.498-.498s-.223-.498-.498-.498zM23.488 23.023h-5.976c-.275 0-.498.223-.498.498 0 .276.223.498.498.498h5.976c.275 0 .498-.222.498-.497 0-.276-.223-.499-.498-.499zM21.496 25.016h-3.984c-.275 0-.498.223-.498.498s.223.498.498.498h3.984c.275 0 .498-.223.498-.498s-.223-.498-.498-.498z"/>
    </g>
    <defs>
        <clipPath id="clip0">
            <path fill="#fff" d="M0 0H17V17H0z" transform="translate(12 12)"/>
        </clipPath>
    </defs>
</svg>
