<svg xmlns="http://www.w3.org/2000/svg" width="20" height="20" fill="none" viewBox="0 0 20 20">
    <path fill="#fff" fill-rule="evenodd" d="M5.833 13.333c0-.458.375-.833.834-.833.458 0 .833.375.833.833 0 .458-.375.833-.833.833-.459 0-.834-.375-.834-.833zM10 12.5h3.333c.459 0 .834.375.834.833 0 .458-.375.833-.834.833H10c-.458 0-.833-.375-.833-.833 0-.458.375-.833.833-.833zm5 4.166H5c-.46 0-.833-.374-.833-.833v-5h11.666v5c0 .46-.374.833-.833.833zM5 5h.833v.833c0 .458.375.833.834.833.458 0 .833-.375.833-.833V5h5v.833c0 .458.375.833.833.833.459 0 .834-.375.834-.833V5H15c.46 0 .833.374.833.833v3.333H4.167V5.833C4.167 5.374 4.54 5 5 5zm10-1.667h-.833V2.5c0-.458-.375-.833-.834-.833-.458 0-.833.375-.833.833v.833h-5V2.5c0-.458-.375-.833-.833-.833-.459 0-.834.375-.834.833v.833H5c-1.378 0-2.5 1.122-2.5 2.5v10c0 1.379 1.122 2.5 2.5 2.5h10c1.378 0 2.5-1.121 2.5-2.5v-10c0-1.378-1.122-2.5-2.5-2.5z" clip-rule="evenodd"/>
    <mask id="2aoyh7knwa" width="16" height="18" x="2" y="1" maskUnits="userSpaceOnUse">
        <path fill="#fff" fill-rule="evenodd" d="M5.833 13.333c0-.458.375-.833.834-.833.458 0 .833.375.833.833 0 .458-.375.833-.833.833-.459 0-.834-.375-.834-.833zM10 12.5h3.333c.459 0 .834.375.834.833 0 .458-.375.833-.834.833H10c-.458 0-.833-.375-.833-.833 0-.458.375-.833.833-.833zm5 4.166H5c-.46 0-.833-.374-.833-.833v-5h11.666v5c0 .46-.374.833-.833.833zM5 5h.833v.833c0 .458.375.833.834.833.458 0 .833-.375.833-.833V5h5v.833c0 .458.375.833.833.833.459 0 .834-.375.834-.833V5H15c.46 0 .833.374.833.833v3.333H4.167V5.833C4.167 5.374 4.54 5 5 5zm10-1.667h-.833V2.5c0-.458-.375-.833-.834-.833-.458 0-.833.375-.833.833v.833h-5V2.5c0-.458-.375-.833-.833-.833-.459 0-.834.375-.834.833v.833H5c-1.378 0-2.5 1.122-2.5 2.5v10c0 1.379 1.122 2.5 2.5 2.5h10c1.378 0 2.5-1.121 2.5-2.5v-10c0-1.378-1.122-2.5-2.5-2.5z" clip-rule="evenodd"/>
    </mask>
</svg>
