<svg xmlns="http://www.w3.org/2000/svg" width="40" height="40" fill="none" viewBox="0 0 40 40">
    <mask id="qrkmylysna" width="40" height="40" x="0" y="0" maskUnits="userSpaceOnUse">
        <rect width="40" height="40" fill="#fff" rx="14"/>
    </mask>
    <g mask="url(#qrkmylysna)">
        <rect width="40" height="40" fill="#E1F4F6" rx="14"/>
        <path fill="#2AAEBC" d="M17.508 11.328h3.984c.367 0 .664-.297.664-.664 0-.367-.297-.664-.664-.664h-3.984c-.367 0-.664.297-.664.664 0 .367.297.664.664.664zM21.378 16.878l-2.348 2.348c-.259.26-.259.68 0 .939.26.26.68.26.94 0l2.347-2.348c.26-.26.26-.68 0-.939-.259-.26-.68-.26-.939 0z"/>
        <path fill="#2AAEBC" d="M19.5 12.39c-4.037 0-7.305 3.268-7.305 7.305S15.462 27 19.5 27c4.037 0 7.305-3.267 7.305-7.305 0-4.037-3.267-7.304-7.305-7.304zm0 13.282c-3.296 0-5.977-2.681-5.977-5.977 0-3.295 2.681-5.976 5.977-5.976 3.296 0 5.977 2.68 5.977 5.976s-2.681 5.977-5.977 5.977z"/>
    </g>
</svg>
