<svg xmlns="http://www.w3.org/2000/svg" width="19" height="14" fill="none" viewBox="0 0 19 14">
    <path fill="#2AAEBC" d="M6.805 0l-1.61.432.657 2.449c-.982.362-1.894.89-2.698 1.56L1.36 2.646.18 3.826l1.796 1.793C.963 6.833.282 8.29 0 9.844l1.64.3c.633-3.502 3.696-6.159 7.38-6.159 3.683 0 6.748 2.657 7.38 6.159l1.64-.299c-.281-1.556-.962-3.012-1.975-4.226l1.794-1.794-1.179-1.179-1.794 1.795c-.804-.67-1.716-1.198-2.698-1.56l.656-2.45-1.609-.43-.657 2.45c-1.031-.178-2.085-.178-3.116 0L6.805 0z"/>
    <circle cx="9.02" cy="10.491" r="3" fill="#2AAEBC"/>
</svg>
