<svg xmlns="http://www.w3.org/2000/svg" width="190" height="35" fill="none" viewBox="0 0 190 35">
    <g clip-path="url(#clip0)">
        <path fill="#fff" d="M187.812 31.781c-9.126 1.331-18.241 2.062-27.439 1.891-1-.018-.972-1.518.029-1.6 7.81-.455 15.525-1.212 23.248-2.368C127.833-2.238 58.842-3.32.936 23.41c-.606.289-1.091-.52-.484-.91C57.12-7.551 128.874-4.418 184.3 27.016c-3.084-6.258-5.957-13.113-6.833-19.83-.174-1.404 1.635-1.87 2.211-.56 3.056 7.759 5.209 15.7 9.071 23.173.185.804-.035 1.9-.937 1.983z"/>
    </g>
    <defs>
        <clipPath id="clip0">
            <path fill="#fff" d="M0 0H188.7V30.7H0z" transform="scale(1 -1) rotate(-1.064 -1653.458 -15.347)"/>
        </clipPath>
    </defs>
</svg>
