<svg xmlns="http://www.w3.org/2000/svg" width="190" height="35" fill="none" viewBox="0 0 190 35">
    <g clip-path="url(#clip0)">
        <path fill="#fff" d="M1.425 31.781c9.126 1.331 18.241 2.062 27.44 1.891 1-.018.972-1.518-.03-1.6-7.81-.455-15.525-1.212-23.248-2.368C61.404-2.238 130.396-3.32 188.302 23.41c.605.289 1.09-.52.483-.91C132.117-7.551 60.363-4.418 4.937 27.016c3.085-6.258 5.958-13.113 6.833-19.83.174-1.404-1.635-1.87-2.21-.56-3.057 7.759-5.21 15.7-9.072 23.173-.185.804.035 1.9.937 1.983z"/>
    </g>
    <defs>
        <clipPath id="clip0">
            <path fill="#fff" d="M0 0H188.7V30.7H0z" transform="rotate(178.936 94.476 16.226)"/>
        </clipPath>
    </defs>
</svg>
